# xmcd
# 
# Track frame offsets:
#     150
#     13044
#     24676
#     37303
#     49082
#     62810
#     76052
#     91958
#     107547
#     121141
#     134377
#     146051
#     158735
#     171568
# 
# Disc length: 2471
# 
# Revision: 1
# Processed by: cddbd v1.5.2PL0 Copyright (c) Steve Scherf et al.
# Submitted via: fre:ac v1.0.17
# 
DISCID=bd09a50e
DTITLE=Various Artist - Battle Of The Blues Harmonica
DYEAR=2002
DGENRE=Blues
TTITLE0=SONNY BOY WILLIAMSON I - Sonny Boy's Jump
TTITLE1=SONNY BOY WILLIAMSON II - Born Blind
TTITLE2=SONNY BOY WILLIAMSON I - I Have Got To Go
TTITLE3=SONNY BOY WILLIAMSON II - Don't Start Me To Talkin'
TTITLE4=SONNY BOY WILLIAMSON I - Early In The Morning
TTITLE5=SONNY BOY WILLIAMSON II - Open Road
TTITLE6=SONNY BOY WILLIAMSON I - Decoration Blues
TTITLE7=SONNY BOY WILLIAMSON II - Decoration Day
TTITLE8=SONNY BOY WILLIAMSON I - Better Cut That Out
TTITLE9=SONNY BOY WILLIAMSON II - All My Love's In Vain
TTITLE10=BIG JOE WILLIAMS - King Biscuit Stomp
TTITLE11=JAMES "PECK" CURTIS - Bus Fare
TTITLE12=SONNY BOY WILLIAMSON I - I Been Dealing With The Devil
TTITLE13=SONNY BOY WILLIAMSON II - Steady Rollin' Man
EXTD=Blues and Soul Records No.47
EXTT0=
EXTT1=
EXTT2=
EXTT3=
EXTT4=
EXTT5=
EXTT6=
EXTT7=
EXTT8=
EXTT9=
EXTT10=
EXTT11=
EXTT12=
EXTT13=
PLAYORDER=
